<?xml version="1.0" encoding="utf-8"?>
<!-- Generator: Adobe Illustrator 28.0.0, SVG Export Plug-In . SVG Version: 6.00 Build 0)  -->
<svg version="1.1" id="Layer_1" xmlns="http://www.w3.org/2000/svg" xmlns:xlink="http://www.w3.org/1999/xlink" x="0px" y="0px"
	 viewBox="0 0 32 32" style="enable-background:new 0 0 32 32;" xml:space="preserve">
<style type="text/css">
	.st0{fill:none;stroke:#2E2C2A;stroke-linejoin:round;}
	.st1{fill:none;stroke:#2E2C2A;stroke-linecap:round;stroke-linejoin:round;}
</style>
<path class="st0" d="M16,12.4707v9.5566v5.9728 M5,28.0001h22c0.5523,0,1-0.4477,1-1V13.4707c0-0.5523-0.4477-1-1-1H5
	c-0.55228,0-1,0.4477-1,1v13.5294C4,27.5524,4.44772,28.0001,5,28.0001z"/>
<path class="st1" d="M7.9999,16.7887c4-1.6,8-4.625,8-4.8 M15.9999,11.9887c0-7.20002,7.7887-9.95506,7.9922-6.5183
	C24.216,9.25179,19.3238,11.9887,15.9999,11.9887z"/>
<path class="st1" d="M23.9996,16.7892c-4-1.6-8-4.625-8-4.8 M15.9996,11.9892c0-7.20004-7.78868-9.95507-7.99218-6.51831
	C7.78352,9.25228,12.6757,11.9892,15.9996,11.9892z"/>
</svg>
